# xmcd
#
# Track frame offsets:
# 150
# 3801
# 28249
# 49709
# 68831
# 85189
# 113667
# 138226
# 157932
# 185040
#
# Disc length: 2765 seconds
#
#
# Revision: 5
# Processed by: cddbd v1.5.1PL0 Copyright (c) Steve Scherf et al.
# Submitted via: FreeRIP 2.90 
#
DISCID=770acb0a
DTITLE=Shadows Fall - Of One Blood
DYEAR=2000
DGENRE=Heavy Metal
TTITLE0=Pain Glass Vision
TTITLE1=Crushing Belial
TTITLE2=Of One Blood
TTITLE3=The First Noble Truth
TTITLE4=Fleshold
TTITLE5=Root Bound Apollo
TTITLE6=Revel In My Loss
TTITLE7=Montauk
TTITLE8=To Ashes
TTITLE9=Serenity
EXTD=YEAR: 2000
EXTT0=
EXTT1=
EXTT2=
EXTT3=
EXTT4=
EXTT5=
EXTT6=
EXTT7=
EXTT8=
EXTT9=
PLAYORDER=
